<svg xmlns="http://www.w3.org/2000/svg" viewBox="0 0 100 100" width="180" height="180">
  <rect width="100" height="100" rx="18" fill="#6abf4b"/>
  <circle cx="50" cy="50" r="34" fill="white" stroke="#222" stroke-width="1.5"/>
  <polygon points="50,20 58,28 54,38 46,38 42,28" fill="#333" stroke="#111" stroke-width="0.8" stroke-linejoin="round"/>
  <polygon points="74,36 80,44 75,52 65,50 63,40" fill="#333" stroke="#111" stroke-width="0.8" stroke-linejoin="round"/>
  <polygon points="71,66 63,72 54,68 54,58 65,54" fill="#333" stroke="#111" stroke-width="0.8" stroke-linejoin="round"/>
  <polygon points="29,66 37,72 46,68 46,58 35,54" fill="#333" stroke="#111" stroke-width="0.8" stroke-linejoin="round"/>
  <polygon points="26,36 20,44 25,52 35,50 37,40" fill="#333" stroke="#111" stroke-width="0.8" stroke-linejoin="round"/>
  <polygon points="46,38 54,38 58,28 50,20 42,28" fill="white" stroke="#111" stroke-width="0.8" stroke-linejoin="round"/>
  <polygon points="54,38 65,40 63,40 65,50 54,58 46,58 35,50 37,40 46,38" fill="white" stroke="#111" stroke-width="0.8" stroke-linejoin="round"/>
  <polygon points="46,38 54,38 65,50 54,58 46,58 35,50" fill="white" stroke="#111" stroke-width="0.8" stroke-linejoin="round"/>
  <polygon points="46,58 54,58 54,68 46,68" fill="white" stroke="#111" stroke-width="0.8"/>
</svg>
